PathFileType	4	(X/Y/Z)	70_1_tpose_p0_0-200_filt_butterworth.trc
DataRate	CameraRate	NumFrames	NumMarkers	Units	OrigDataRate	OrigDataStartFrame	OrigNumFrames
59.0	59.0	5	27	m	59.0	100	200
Frame#	Time	RHip			RKnee			RAnkle			RBigToe			RSmallToe			RHeel			LHip			LKnee			LAnkle			LBigToe			LSmallToe			LHeel			Neck			Head			Nose			RShoulder			RElbow			RWrist			RThumb			RIndex			RPinky			LShoulder			LElbow			LWrist			LThumb			LIndex			LPinky			
		X1	Y1	Z1	X2	Y2	Z2	X3	Y3	Z3	X4	Y4	Z4	X5	Y5	Z5	X6	Y6	Z6	X7	Y7	Z7	X8	Y8	Z8	X9	Y9	Z9	X10	Y10	Z10	X11	Y11	Z11	X12	Y12	Z12	X13	Y13	Z13	X14	Y14	Z14	X15	Y15	Z15	X16	Y16	Z16	X17	Y17	Z17	X18	Y18	Z18	X19	Y19	Z19	X20	Y20	Z20	X21	Y21	Z21	X22	Y22	Z22	X23	Y23	Z23	X24	Y24	Z24	X25	Y25	Z25	X26	Y26	Z26	X27	Y27	Z27	
100	1.694915254237288	0.3594839211082115	0.4820770633037646	0.04784887683878476	0.365852729495039	0.6829635357903969	0.4851126218527787	0.3611377313197847	0.8154080316932164	0.9020325112796648	0.32715053290871476	0.6438447642321035	0.9994628399703083	0.39787207286943904	0.6459351660037561	0.9782151973515396	0.347346522441452	0.9208145276152149	0.9889544797297026	0.13860851237253072	0.5430216288125596	0.05701517352560498	0.15527584155187	0.6994482033884001	0.4886989834931356	0.16811470036324516	0.8253110633661279	0.8991697452879395	0.16635501620698448	0.652158311100161	0.9868580493737127	0.11087405652264173	0.7157209065829755	0.9760630309494273	0.1875853057688191	0.8800048312631875	0.9553733378644708	0.2308028417582727	0.41773788279028823	-0.574753102734749	0.22232572543290346	0.3185719297860141	-0.8305358471458819	0.21145336108071233	0.2709420748238119	-0.6750858611724234	0.40365100176133273	0.393555454259215	-0.5122980782825668	0.7179874200631648	0.3762983072483117	-0.5408259203091241	0.990494921182141	0.33201508217094794	-0.5640568066614001	1.1398796020191961	0.27283296318388234	-0.5047467901222089	1.1555398210097436	0.2823343169243097	-0.5069668194445682	1.1105999804429416	0.301747005523224	-0.49943285667041815	0.04036765385488048	0.44606361373705156	-0.5130337723705849	-0.252041197599548	0.5924871373308253	-0.5200316728441142	-0.5143944110151817	0.6296507879442633	-0.5324907188069867	-0.6124143133728198	0.5944981475562211	-0.49792955410304135	-0.6513403735724367	0.6680817618284174	-0.5300169310328207	-0.6347006330932692	0.6468113607256147	-0.5285646385046847
101	1.7118644067796611	0.359513339175371	0.48204341023800074	0.04916367131156165	0.3659922749837815	0.6829385624983094	0.4850960250744827	0.36104782633513605	0.8152056964259926	0.9018247588386624	0.32661918189343153	0.6434189558489397	0.9994238053319792	0.3978457145651284	0.6455350909506519	0.978191098702377	0.347367118050526	0.9208565879978914	0.9889681230855041	0.13867118267289655	0.5428342491868625	0.05701433575766007	0.15535042920082448	0.6996006634221705	0.48834781111032777	0.16812019776410855	0.8253213304856571	0.8991584932057195	0.16793100852990753	0.6561501094688297	0.988015024936715	0.1109408029282423	0.7156205546932652	0.9760799940663698	0.1862577799067343	0.8784002833866248	0.9550802985066571	0.2308229916987309	0.41787951879007623	-0.5747697601491801	0.22232403934125688	0.3185723546200569	-0.8305500524784103	0.21204187695452864	0.2678027409410696	-0.6745154603842769	0.4036450254580367	0.39353145766106207	-0.5123671665843927	0.7180789920343918	0.37258554836464647	-0.5404375562196367	0.98896792327286	0.3311774856029285	-0.5629652035614039	1.1358748278015027	0.2719092806767881	-0.5036293817497708	1.1532846368745973	0.27981433814571277	-0.5065821618200987	1.1048513026687123	0.2973456528708703	-0.4986051596042492	0.040395780134955414	0.4461699361437544	-0.5121887484854549	-0.25197280897904606	0.5928329266743306	-0.5200701768999707	-0.5129727648579347	0.6261593481131285	-0.531982590992114	-0.6131940331267448	0.5939595802159817	-0.49885966344463545	-0.6505133996898941	0.6661806351493137	-0.5281683796863013	-0.6312261033507294	0.6343837509201246	-0.5273583100280735
102	1.728813559322034	0.35958641720413564	0.48199401087778593	0.05016684840214507	0.3660166985982237	0.6830289527094442	0.4851911805942424	0.3609820062974989	0.8159037812503331	0.9034131460696125	0.32645243875276597	0.6430493927624026	0.9994287575901581	0.3976203921121368	0.6454250221708485	0.9782078667643453	0.34738534810541344	0.9208866646526294	0.9890490406523428	0.13867659936749263	0.5428735774069597	0.05700898184535379	0.15537233490606575	0.6995819754806005	0.48827400167135204	0.168131731068164	0.8253380196345846	0.8991468887212655	0.1685295491180121	0.6578704778929693	0.9918774286609395	0.11097171595725457	0.7156393033694665	0.9761267157955245	0.18597549560320523	0.8778830683164831	0.954722452231765	0.23072297594357719	0.41781241163599236	-0.5747466242264733	0.22231733834130463	0.3185885434041904	-0.8305721906138402	0.21226510097337029	0.26658777310281107	-0.6743039965444844	0.4036442369798221	0.3934765286575612	-0.5123921333447582	0.7180622506402635	0.3711560939366455	-0.5402669038882578	0.987753095094158	0.3318038410341569	-0.5616697193271842	1.1308512157504758	0.2699833341139361	-0.5026255161517005	1.1503563745547378	0.27623841371197116	-0.5060493562566296	1.1014601889962252	0.2958709435450918	-0.49818184753322536	0.04044358344598271	0.4462964980792277	-0.5110588329916865	-0.25197887517279005	0.5928560503337716	-0.5200770484881949	-0.5111577363768854	0.6216012498754221	-0.5313478386755681	-0.6134823623007467	0.5933072358092053	-0.4991235453058894	-0.6475602348194305	0.6595337916521998	-0.5255700927310133	-0.6272245834364775	0.62065667189225	-0.5261785490427514
103	1.7457627118644068	0.3596690728590101	0.4819886097105704	0.05057507105046682	0.3661144242849112	0.6832522224670997	0.4856970551286487	0.3608873906262737	0.8166564342919207	0.9050580312155776	0.3264882807961859	0.642882217787569	0.9994418261195978	0.39733357534469393	0.645461096359728	0.9782473727966449	0.3473949663854837	0.9208812052426372	0.9891835535130372	0.13861841256081586	0.5431067768411818	0.057001036703111393	0.1553748819165498	0.699432923142276	0.4882798052435762	0.16814347975006255	0.8253488458008045	0.8991273940608369	0.16839902534111914	0.6581311420375409	0.9954960471847185	0.11098437260595481	0.7157023485726659	0.9761485635653107	0.18671708560987055	0.8781362899990356	0.9536611773164456	0.23051699386856317	0.4163176927118834	-0.5744990359745156	0.2223106536179053	0.31861262829417647	-0.8305956654950121	0.21225487149113925	0.26656201928573275	-0.6743132157276873	0.4036463570042943	0.39341726316126374	-0.5123905251830125	0.7179708462038535	0.371228349421506	-0.5399307022074893	0.987114409682654	0.3326948861773163	-0.5600266538821075	1.1264751904056505	0.2684665041146844	-0.5017442057452002	1.1483293810486612	0.2735198624897492	-0.5056519972140486	1.1005621431813943	0.29595014738179787	-0.4978717568993123	0.04048626542988452	0.4463621931981432	-0.5101674184704248	-0.2522936291019654	0.5915152762122591	-0.519898538756217	-0.5101359520758324	0.6179552950932301	-0.5308374693687368	-0.6134664059307608	0.5929574691709424	-0.4984450715817636	-0.6427269302693525	0.6485511397895908	-0.5230983564675231	-0.6233590793120378	0.6097016568994879	-0.5252958573213921
104	1.7627118644067796	0.3597056126858559	0.48215232515007445	0.050631946534332936	0.3664004461327165	0.6837277297084396	0.4869061977170109	0.3606705877617828	0.8167278955976982	0.9053013569629003	0.3269106087745731	0.6440043618612727	0.9993806854863555	0.39713319682242465	0.6455431560560688	0.9782904809061348	0.34739208958670337	0.9208445452190118	0.9892203409577163	0.13852757236614338	0.5434418034909093	0.05700677545205004	0.15538003552572963	0.6992824978047926	0.48828411714557884	0.1681529454636588	0.8253522695041589	0.8991059604692967	0.1680830383254381	0.6580254967570653	0.9964858191168682	0.11099768892697483	0.7157856609560789	0.9761430630588482	0.18814521848578095	0.8785463054874306	0.9512834100805845	0.2304483721768972	0.41255881156643204	-0.5739117209149428	0.2223079039784504	0.3186311131962335	-0.8306115484995557	0.21218911016203595	0.2668113167206432	-0.6743655213293045	0.40365077686512096	0.39338036369473706	-0.5123941496022666	0.7179752088933932	0.3717329232264766	-0.5389744408096904	0.98696709915515	0.3332334716022536	-0.5579581645446113	1.1243711190344086	0.2689013032542012	-0.5012411496964997	1.1482582821118783	0.2732310950992409	-0.505628989044604	1.100740674109603	0.2963531359086119	-0.4973983577740141	0.040514114514435935	0.4463417110072318	-0.5097618266108161	-0.2530899928460177	0.5880228271941512	-0.5193964858276137	-0.5105483802225573	0.6159695376905122	-0.5305289282796087	-0.6133893335901565	0.5928358161243513	-0.4972096407502611	-0.6386704208505367	0.6389054410236028	-0.5215315462428014	-0.6209900238448864	0.6037515885407154	-0.5247953857464579
